<svg xmlns="http://www.w3.org/2000/svg" width="50" height="57" viewBox="0 0 50 57"><defs><clipPath id="p91ja"><path fill="#fff" d="M49.645 54.228l-.855.113.86.989-1.928 1.665-14.308-16.44a21.657 21.657 0 0 1-13.283 3.386C8.179 43.093-.822 32.752.028 20.842.877 8.932 11.255-.035 23.207.812 35.159 1.66 44.159 12 43.31 23.91a21.518 21.518 0 0 1-7.126 14.534z"/></clipPath></defs><g><g opacity=".87"><path fill="none" stroke="#34a853" stroke-miterlimit="20" stroke-width="4" d="M49.645 54.228l-.855.113.86.989-1.928 1.665-14.308-16.44a21.657 21.657 0 0 1-13.283 3.386C8.179 43.093-.822 32.752.028 20.842.877 8.932 11.255-.035 23.207.812 35.159 1.66 44.159 12 43.31 23.91a21.518 21.518 0 0 1-7.126 14.534z" clip-path="url(&quot;#p91ja&quot;)"/></g></g></svg>